<svg xmlns="http://www.w3.org/2000/svg" width="217.381" height="148" viewBox="0 0 217.381 148">
  <g id="Group_619" data-name="Group 619" transform="translate(-280 -5965)">
    <path id="Vector" d="M0,0H4V4H0Z" transform="translate(280 5965)" fill="#c4c4c4" opacity="0.3"/>
    <path id="Vector-2" data-name="Vector" d="M24,0h4V4H24Z" transform="translate(280 5965)" fill="#c4c4c4" opacity="0.3"/>
    <path id="Vector-3" data-name="Vector" d="M48,0h4V4H48Z" transform="translate(280 5965)" fill="#c4c4c4" opacity="0.3"/>
    <path id="Vector-4" data-name="Vector" d="M72,0h4V4H72Z" transform="translate(280 5965)" fill="#c4c4c4" opacity="0.3"/>
    <path id="Vector-5" data-name="Vector" d="M96,0h4V4H96Z" transform="translate(337.938 5965)" fill="#c4c4c4" opacity="0.3"/>
    <path id="Vector-6" data-name="Vector" d="M120,0h4V4h-4Z" transform="translate(343.658 5965)" fill="#c4c4c4" opacity="0.3"/>
    <path id="Vector-7" data-name="Vector" d="M144,0h4V4h-4Z" transform="translate(349.381 5965)" fill="#c4c4c4" opacity="0.3"/>
    <path id="Vector-8" data-name="Vector" d="M0,24H4v4H0Z" transform="translate(280 5965)" fill="#c4c4c4" opacity="0.3"/>
    <path id="Vector-9" data-name="Vector" d="M24,24h4v4H24Z" transform="translate(280 5965)" fill="#c4c4c4" opacity="0.3"/>
    <path id="Vector-10" data-name="Vector" d="M48,24h4v4H48Z" transform="translate(280 5965)" fill="#c4c4c4" opacity="0.3"/>
    <path id="Vector-11" data-name="Vector" d="M72,24h4v4H72Z" transform="translate(280 5965)" fill="#c4c4c4" opacity="0.3"/>
    <path id="Vector-12" data-name="Vector" d="M96,24h4v4H96Z" transform="translate(337.938 5965)" fill="#c4c4c4" opacity="0.3"/>
    <path id="Vector-13" data-name="Vector" d="M120,24h4v4h-4Z" transform="translate(343.658 5965)" fill="#c4c4c4" opacity="0.3"/>
    <path id="Vector-14" data-name="Vector" d="M144,24h4v4h-4Z" transform="translate(349.381 5965)" fill="#c4c4c4" opacity="0.3"/>
    <path id="Vector-15" data-name="Vector" d="M0,48H4v4H0Z" transform="translate(280 5965)" fill="#c4c4c4" opacity="0.3"/>
    <path id="Vector-16" data-name="Vector" d="M24,48h4v4H24Z" transform="translate(280 5965)" fill="#c4c4c4" opacity="0.3"/>
    <path id="Vector-17" data-name="Vector" d="M48,48h4v4H48Z" transform="translate(280 5965)" fill="#c4c4c4" opacity="0.3"/>
    <path id="Vector-18" data-name="Vector" d="M72,48h4v4H72Z" transform="translate(280 5965)" fill="#c4c4c4" opacity="0.3"/>
    <path id="Vector-19" data-name="Vector" d="M96,48h4v4H96Z" transform="translate(337.938 5965)" fill="#c4c4c4" opacity="0.3"/>
    <path id="Vector-20" data-name="Vector" d="M120,48h4v4h-4Z" transform="translate(343.658 5965)" fill="#c4c4c4" opacity="0.3"/>
    <path id="Vector-21" data-name="Vector" d="M144,48h4v4h-4Z" transform="translate(349.381 5965)" fill="#c4c4c4" opacity="0.3"/>
    <path id="Vector-22" data-name="Vector" d="M0,72H4v4H0Z" transform="translate(280 5965)" fill="#c4c4c4" opacity="0.3"/>
    <path id="Vector-23" data-name="Vector" d="M24,72h4v4H24Z" transform="translate(280 5965)" fill="#c4c4c4" opacity="0.3"/>
    <path id="Vector-24" data-name="Vector" d="M48,72h4v4H48Z" transform="translate(280 5965)" fill="#c4c4c4" opacity="0.3"/>
    <path id="Vector-25" data-name="Vector" d="M72,72h4v4H72Z" transform="translate(280 5965)" fill="#c4c4c4" opacity="0.3"/>
    <path id="Vector-26" data-name="Vector" d="M96,72h4v4H96Z" transform="translate(337.938 5965)" fill="#c4c4c4" opacity="0.3"/>
    <path id="Vector-27" data-name="Vector" d="M120,72h4v4h-4Z" transform="translate(343.658 5965)" fill="#c4c4c4" opacity="0.3"/>
    <path id="Vector-28" data-name="Vector" d="M144,72h4v4h-4Z" transform="translate(349.381 5965)" fill="#c4c4c4" opacity="0.3"/>
    <path id="Vector-29" data-name="Vector" d="M0,96H4v4H0Z" transform="translate(280 5965)" fill="#c4c4c4" opacity="0.3"/>
    <path id="Vector-30" data-name="Vector" d="M24,96h4v4H24Z" transform="translate(280 5965)" fill="#c4c4c4" opacity="0.3"/>
    <path id="Vector-31" data-name="Vector" d="M48,96h4v4H48Z" transform="translate(280 5965)" fill="#c4c4c4" opacity="0.3"/>
    <path id="Vector-32" data-name="Vector" d="M72,96h4v4H72Z" transform="translate(280 5965)" fill="#c4c4c4" opacity="0.3"/>
    <path id="Vector-33" data-name="Vector" d="M96,96h4v4H96Z" transform="translate(337.938 5965)" fill="#c4c4c4" opacity="0.3"/>
    <path id="Vector-34" data-name="Vector" d="M120,96h4v4h-4Z" transform="translate(343.658 5965)" fill="#c4c4c4" opacity="0.3"/>
    <path id="Vector-35" data-name="Vector" d="M144,96h4v4h-4Z" transform="translate(349.381 5965)" fill="#c4c4c4" opacity="0.3"/>
    <path id="Vector-36" data-name="Vector" d="M0,120H4v4H0Z" transform="translate(280 5965)" fill="#c4c4c4" opacity="0.3"/>
    <path id="Vector-37" data-name="Vector" d="M24,120h4v4H24Z" transform="translate(280 5965)" fill="#c4c4c4" opacity="0.3"/>
    <path id="Vector-38" data-name="Vector" d="M48,120h4v4H48Z" transform="translate(280 5965)" fill="#c4c4c4" opacity="0.3"/>
    <path id="Vector-39" data-name="Vector" d="M72,120h4v4H72Z" transform="translate(280 5965)" fill="#c4c4c4" opacity="0.3"/>
    <path id="Vector-40" data-name="Vector" d="M96,120h4v4H96Z" transform="translate(337.938 5965)" fill="#c4c4c4" opacity="0.3"/>
    <path id="Vector-41" data-name="Vector" d="M120,120h4v4h-4Z" transform="translate(343.658 5965)" fill="#c4c4c4" opacity="0.3"/>
    <path id="Vector-42" data-name="Vector" d="M144,120h4v4h-4Z" transform="translate(349.381 5965)" fill="#c4c4c4" opacity="0.3"/>
    <path id="Vector-43" data-name="Vector" d="M0,144H4v4H0Z" transform="translate(280 5965)" fill="#c4c4c4" opacity="0.3"/>
    <path id="Vector-44" data-name="Vector" d="M24,144h4v4H24Z" transform="translate(280 5965)" fill="#c4c4c4" opacity="0.3"/>
    <path id="Vector-45" data-name="Vector" d="M48,144h4v4H48Z" transform="translate(280 5965)" fill="#c4c4c4" opacity="0.3"/>
    <path id="Vector-46" data-name="Vector" d="M72,144h4v4H72Z" transform="translate(280 5965)" fill="#c4c4c4" opacity="0.3"/>
    <path id="Vector-47" data-name="Vector" d="M96,144h4v4H96Z" transform="translate(337.938 5965)" fill="#c4c4c4" opacity="0.3"/>
    <path id="Vector-48" data-name="Vector" d="M120,144h4v4h-4Z" transform="translate(343.658 5965)" fill="#c4c4c4" opacity="0.3"/>
    <path id="Vector-49" data-name="Vector" d="M144,144h4v4h-4Z" transform="translate(349.381 5965)" fill="#c4c4c4" opacity="0.3"/>
  </g>
</svg>
