<svg id="Logo" xmlns="http://www.w3.org/2000/svg" width="162.999" height="30" viewBox="0 0 162.999 30">
  <g id="Logo-2" data-name="Logo">
    <ellipse id="Oval" cx="10.422" cy="10.46" rx="10.422" ry="10.46" transform="translate(4.462 4.571)" fill="#1b51e5" opacity="0.25"/>
    <path id="Path" d="M6.29,12.578a6.288,6.288,0,1,1,4.444-1.84A6.292,6.292,0,0,1,6.29,12.578Z" transform="translate(0 0.318)" fill="#1b51e5" opacity="0.5"/>
    <path id="Path-2" data-name="Path" d="M6.295,12.585a6.292,6.292,0,1,1,4.444-1.84,6.292,6.292,0,0,1-4.444,1.84Z" transform="translate(17.415 17.415)" fill="#1b51e5" opacity="0.5"/>
    <path id="Path-3" data-name="Path" d="M6.384,29.932A6.364,6.364,0,0,1,2.767,18.285l.312-.2c.219-.13.446-.248.685-.362.122-.053.243-.11.377-.159a6.042,6.042,0,0,1,.762-.224l.162-.045a.672.672,0,0,1,.085-.024L6.6,17.167a4.563,4.563,0,0,1,.6.065h.746a9.386,9.386,0,0,0,9.266-9.541V7.553a1.5,1.5,0,0,1-.024-.236v-.2l-.053-.187c0-.114-.028-.236-.032-.354l.1-1.342V5.183a1.775,1.775,0,0,1,.061-.211,6.88,6.88,0,0,1,.235-.813c.045-.122.1-.244.158-.366a6.1,6.1,0,0,1,.365-.7V3.056c.057-.094.109-.187.174-.276a6.1,6.1,0,0,1,.726-.9,6.4,6.4,0,1,1,9.051,9.057,6.252,6.252,0,0,1-.9.728c-.1.069-.182.118-.268.171l-.049.028c-.235.138-.462.26-.681.362-.13.057-.247.114-.369.159a6.666,6.666,0,0,1-.783.232,1.619,1.619,0,0,0-.166.045l-.1.028-1.415.1a4.877,4.877,0,0,1-.568-.057H21.9a9.42,9.42,0,0,0-9.27,9.509v.142a1.846,1.846,0,0,1,.02.215.821.821,0,0,0,.02.224c.02.073,0,.138.024.211a2.784,2.784,0,0,1,.024.317l-.1,1.394a1.091,1.091,0,0,1-.028.11l-.036.126a6.053,6.053,0,0,1-.231.813c-.045.122-.105.248-.162.374a7.487,7.487,0,0,1-.345.687c-.065.114-.126.215-.195.313a6.034,6.034,0,0,1-.734.907,6.33,6.33,0,0,1-4.5,1.87Z" transform="translate(0.16 0)" fill="#1b51e5"/>
  </g>
  <path id="Path_318" data-name="Path 318" d="M9.852,4.8a4.447,4.447,0,0,0,1.632-.253,2.579,2.579,0,0,0,.991-.656,2.2,2.2,0,0,0,.492-.909A4,4,0,0,0,13.1,1.952,3.432,3.432,0,0,0,12.944.879a1.774,1.774,0,0,0-.536-.8A2.621,2.621,0,0,0,11.4-.432a5.862,5.862,0,0,0-1.58-.179H6.306V4.8ZM6.306-9.343v5.364H8.928A8.642,8.642,0,0,0,10.433-4.1a3.129,3.129,0,0,0,1.14-.417,1.915,1.915,0,0,0,.715-.82,3.074,3.074,0,0,0,.246-1.311,3.689,3.689,0,0,0-.194-1.289,1.847,1.847,0,0,0-.6-.827,2.5,2.5,0,0,0-1.021-.447,7.008,7.008,0,0,0-1.468-.134Zm2.95-3.77a15.186,15.186,0,0,1,3.83.417,7.3,7.3,0,0,1,2.578,1.177,4.461,4.461,0,0,1,1.453,1.848,6.244,6.244,0,0,1,.454,2.429,4.761,4.761,0,0,1-.209,1.408,4.054,4.054,0,0,1-.656,1.267,5.109,5.109,0,0,1-1.147,1.08,7.2,7.2,0,0,1-1.684.849A6.007,6.007,0,0,1,17.049-.954a4.374,4.374,0,0,1,1.028,3.01,6.209,6.209,0,0,1-.536,2.578,5.9,5.9,0,0,1-1.572,2.079A7.454,7.454,0,0,1,13.414,8.1a11.114,11.114,0,0,1-3.472.5H1.269V-13.113ZM26.288-9.239v5.066h6.825V-.447H26.288V4.724H35.2V8.6H21.222V-13.113H35.2v3.874ZM47.359,4.62a4.632,4.632,0,0,0,1.811-.335,3.662,3.662,0,0,0,1.349-.961A4.248,4.248,0,0,0,51.36,1.8,6.67,6.67,0,0,0,51.65-.253v-12.86h5.037V-.253a10.043,10.043,0,0,1-.648,3.666,8.223,8.223,0,0,1-1.855,2.876,8.372,8.372,0,0,1-2.936,1.878,10.682,10.682,0,0,1-3.889.671,10.727,10.727,0,0,1-3.9-.671,8.372,8.372,0,0,1-2.936-1.878,8.136,8.136,0,0,1-1.848-2.876,10.147,10.147,0,0,1-.641-3.666v-12.86h5.037V-.268a6.67,6.67,0,0,0,.291,2.049A4.325,4.325,0,0,0,44.2,3.316a3.624,3.624,0,0,0,1.349.969A4.632,4.632,0,0,0,47.359,4.62ZM71.529.3,69.517-5.647q-.224-.566-.477-1.334t-.507-1.661q-.224.909-.477,1.684T67.58-5.618L65.583.3Zm8,8.3h-3.9a1.7,1.7,0,0,1-1.058-.305,1.941,1.941,0,0,1-.611-.782L72.676,3.725H64.421L63.139,7.51a1.811,1.811,0,0,1-.589.753A1.643,1.643,0,0,1,61.5,8.6H57.566l8.4-21.711h5.156ZM100.2-13.113V8.6H97.576a2.281,2.281,0,0,1-.976-.186,2.389,2.389,0,0,1-.782-.648L85.581-5.185q.06.581.082,1.125t.022,1.021V8.6H81.244V-13.113H83.9a4.275,4.275,0,0,1,.551.03,1.407,1.407,0,0,1,.4.112,1.343,1.343,0,0,1,.343.231,3.917,3.917,0,0,1,.373.4L95.892.7q-.074-.626-.1-1.214t-.03-1.11V-13.113ZM124.1-2.265a11.385,11.385,0,0,1-.812,4.344A10.162,10.162,0,0,1,121,5.521a10.374,10.374,0,0,1-3.554,2.265,12.576,12.576,0,0,1-4.612.812H104.4V-13.113h8.434a12.474,12.474,0,0,1,4.612.82A10.524,10.524,0,0,1,121-10.028a10.083,10.083,0,0,1,2.287,3.435A11.345,11.345,0,0,1,124.1-2.265Zm-5.156,0a9.459,9.459,0,0,0-.417-2.906,6.209,6.209,0,0,0-1.2-2.2,5.209,5.209,0,0,0-1.915-1.386,6.5,6.5,0,0,0-2.578-.484h-3.368V4.724h3.368a6.5,6.5,0,0,0,2.578-.484,5.209,5.209,0,0,0,1.915-1.386,6.209,6.209,0,0,0,1.2-2.2A9.512,9.512,0,0,0,118.945-2.265Z" transform="translate(38.898 17.163)" fill="#1b51e5"/>
</svg>
