<svg id="translate-24px" xmlns="http://www.w3.org/2000/svg" width="29.241" height="29.241" viewBox="0 0 29.241 29.241">
  <path id="Path_1" data-name="Path 1" d="M0,0H29.241V29.241H0Z" fill="none"/>
  <path id="Path_2" data-name="Path 2" d="M15.7,18.495l-3.145-3.168.037-.038a22.223,22.223,0,0,0,4.594-8.241h3.628V4.524H12.144V2H9.668V4.524H1V7.036H14.831A19.916,19.916,0,0,1,10.906,13.8a19.761,19.761,0,0,1-2.86-4.228H5.569a22.211,22.211,0,0,0,3.69,5.755l-6.3,6.335,1.758,1.792,6.191-6.31,3.851,3.925Zm6.971-6.4H20.192L14.62,27.241H17.1l1.387-3.786h5.882l1.4,3.786h2.476Zm-3.244,8.834,2.006-5.465,2.006,5.465H19.425Z" transform="translate(0)" fill="#fafafa"/>
</svg>
